<?xml version="1.0" encoding="UTF-8" standalone="no"?>
<!DOCTYPE svg PUBLIC "-//W3C//DTD SVG 1.1//EN"
 "http://www.w3.org/Graphics/SVG/1.1/DTD/svg11.dtd">
<!-- Generated by graphviz version 2.43.0 (0)
 -->
<!-- Title: %3 Pages: 1 -->
<svg width="388pt" height="130pt"
 viewBox="0.00 0.00 388.47 130.00" xmlns="http://www.w3.org/2000/svg" xmlns:xlink="http://www.w3.org/1999/xlink">
<g id="graph0" class="graph" transform="scale(1 1) rotate(0) translate(4 126)">
<title>%3</title>
<polygon fill="white" stroke="transparent" points="-4,4 -4,-126 384.47,-126 384.47,4 -4,4"/>
<!-- nameAndMeaningReference -->
<g id="node1" class="node">
<title>nameAndMeaningReference</title>
<ellipse fill="none" stroke="black" cx="132.25" cy="-104" rx="111.52" ry="18"/>
<text text-anchor="middle" x="132.25" y="-99.8" font-family="Times,serif" font-size="14.00">nameAndMeaningReference</text>
</g>
<!-- name -->
<g id="node2" class="node">
<title>name</title>
<ellipse fill="none" stroke="blue" cx="30.25" cy="-18" rx="30" ry="18"/>
<text text-anchor="middle" x="30.25" y="-13.8" font-family="Times,serif" font-size="14.00">string</text>
</g>
<!-- nameAndMeaningReference&#45;&gt;name -->
<g id="edge1" class="edge">
<title>nameAndMeaningReference&#45;&gt;name</title>
<path fill="none" stroke="blue" d="M111.61,-86C95.4,-72.65 72.76,-54.01 55.48,-39.77"/>
<polygon fill="blue" stroke="blue" points="57.42,-36.84 47.47,-33.18 52.97,-42.24 57.42,-36.84"/>
<text text-anchor="middle" x="103.41" y="-56.8" font-family="Times,serif" font-size="14.00">name</text>
</g>
<!-- uri -->
<g id="node3" class="node">
<title>uri</title>
<ellipse fill="none" stroke="blue" cx="132.25" cy="-18" rx="53.63" ry="18"/>
<text text-anchor="middle" x="132.25" y="-13.8" font-family="Times,serif" font-size="14.00">externalURI</text>
</g>
<!-- nameAndMeaningReference&#45;&gt;uri -->
<g id="edge2" class="edge">
<title>nameAndMeaningReference&#45;&gt;uri</title>
<path fill="none" stroke="blue" d="M132.25,-85.6C132.25,-74.26 132.25,-59.23 132.25,-46.32"/>
<polygon fill="blue" stroke="blue" points="135.75,-46.1 132.25,-36.1 128.75,-46.1 135.75,-46.1"/>
<text text-anchor="middle" x="140.03" y="-56.8" font-family="Times,serif" font-size="14.00">uri</text>
</g>
<!-- href -->
<g id="node4" class="node">
<title>href</title>
<ellipse fill="none" stroke="black" cx="231.25" cy="-18" rx="27" ry="18"/>
<text text-anchor="middle" x="231.25" y="-13.8" font-family="Times,serif" font-size="14.00">href</text>
</g>
<!-- nameAndMeaningReference&#45;&gt;href -->
<g id="edge3" class="edge">
<title>nameAndMeaningReference&#45;&gt;href</title>
<path fill="none" stroke="blue" d="M152.28,-86C168.21,-72.49 190.54,-53.55 207.39,-39.25"/>
<polygon fill="blue" stroke="blue" points="209.81,-41.79 215.17,-32.65 205.28,-36.45 209.81,-41.79"/>
<text text-anchor="middle" x="199.52" y="-56.8" font-family="Times,serif" font-size="14.00">href</text>
</g>
<!-- meaningHref -->
<g id="node5" class="node">
<title>meaningHref</title>
<ellipse fill="none" stroke="blue" cx="321.25" cy="-104" rx="59.44" ry="18"/>
<text text-anchor="middle" x="321.25" y="-99.8" font-family="Times,serif" font-size="14.00">renderingURI</text>
</g>
</g>
</svg>
