<?xml version="1.0" encoding="UTF-8" standalone="no"?>
<!DOCTYPE svg PUBLIC "-//W3C//DTD SVG 1.1//EN"
 "http://www.w3.org/Graphics/SVG/1.1/DTD/svg11.dtd">
<!-- Generated by graphviz version 2.43.0 (0)
 -->
<!-- Title: %3 Pages: 1 -->
<svg width="151pt" height="130pt"
 viewBox="0.00 0.00 150.78 130.00" xmlns="http://www.w3.org/2000/svg" xmlns:xlink="http://www.w3.org/1999/xlink">
<g id="graph0" class="graph" transform="scale(1 1) rotate(0) translate(4 126)">
<title>%3</title>
<polygon fill="white" stroke="transparent" points="-4,4 -4,-126 146.78,-126 146.78,4 -4,4"/>
<!-- opaqueData -->
<g id="node1" class="node">
<title>opaqueData</title>
<ellipse fill="none" stroke="black" cx="69.25" cy="-104" rx="52.18" ry="18"/>
<text text-anchor="middle" x="69.25" y="-99.8" font-family="Times,serif" font-size="14.00">opaqueData</text>
</g>
<!-- value -->
<g id="node2" class="node">
<title>value</title>
<ellipse fill="none" stroke="blue" cx="30.25" cy="-18" rx="30" ry="18"/>
<text text-anchor="middle" x="30.25" y="-13.8" font-family="Times,serif" font-size="14.00">string</text>
</g>
<!-- opaqueData&#45;&gt;value -->
<g id="edge1" class="edge">
<title>opaqueData&#45;&gt;value</title>
<path fill="none" stroke="blue" d="M61.36,-86C55.88,-74.2 48.47,-58.25 42.26,-44.88"/>
<polygon fill="blue" stroke="blue" points="45.38,-43.28 38,-35.69 39.03,-46.23 45.38,-43.28"/>
<text text-anchor="middle" x="67.41" y="-56.8" font-family="Times,serif" font-size="14.00">value</text>
</g>
<!-- language -->
<g id="node3" class="node">
<title>language</title>
<ellipse fill="none" stroke="blue" cx="109.25" cy="-18" rx="30" ry="18"/>
<text text-anchor="middle" x="109.25" y="-13.8" font-family="Times,serif" font-size="14.00">string</text>
</g>
<!-- opaqueData&#45;&gt;language -->
<g id="edge2" class="edge">
<title>opaqueData&#45;&gt;language</title>
<path fill="none" stroke="blue" d="M77.6,-85.93C80.37,-80.24 83.46,-73.85 86.25,-68 89.76,-60.65 93.53,-52.67 96.98,-45.32"/>
<polygon fill="blue" stroke="blue" points="100.36,-46.35 101.43,-35.81 94.02,-43.38 100.36,-46.35"/>
<text text-anchor="middle" x="117.52" y="-56.8" font-family="Times,serif" font-size="14.00">language</text>
</g>
</g>
</svg>
