<?xml version="1.0" encoding="UTF-8" standalone="no"?>
<!DOCTYPE svg PUBLIC "-//W3C//DTD SVG 1.1//EN"
 "http://www.w3.org/Graphics/SVG/1.1/DTD/svg11.dtd">
<!-- Generated by graphviz version 2.43.0 (0)
 -->
<!-- Title: %3 Pages: 1 -->
<svg width="340pt" height="130pt"
 viewBox="0.00 0.00 340.45 130.00" xmlns="http://www.w3.org/2000/svg" xmlns:xlink="http://www.w3.org/1999/xlink">
<g id="graph0" class="graph" transform="scale(1 1) rotate(0) translate(4 126)">
<title>%3</title>
<polygon fill="white" stroke="transparent" points="-4,4 -4,-126 336.45,-126 336.45,4 -4,4"/>
<!-- entityReference -->
<g id="node1" class="node">
<title>entityReference</title>
<ellipse fill="none" stroke="black" cx="166.23" cy="-104" rx="66.16" ry="18"/>
<text text-anchor="middle" x="166.23" y="-99.8" font-family="Times,serif" font-size="14.00">entityReference</text>
</g>
<!-- about -->
<g id="node2" class="node">
<title>about</title>
<ellipse fill="none" stroke="blue" cx="59.23" cy="-18" rx="59.46" ry="18"/>
<text text-anchor="middle" x="59.23" y="-13.8" font-family="Times,serif" font-size="14.00">persistentURI</text>
</g>
<!-- entityReference&#45;&gt;about -->
<g id="edge1" class="edge">
<title>entityReference&#45;&gt;about</title>
<path fill="none" stroke="blue" d="M145.6,-86.8C129.17,-73.9 105.98,-55.7 87.77,-41.41"/>
<polygon fill="blue" stroke="blue" points="89.82,-38.57 79.8,-35.15 85.5,-44.07 89.82,-38.57"/>
<text text-anchor="middle" x="134.78" y="-56.8" font-family="Times,serif" font-size="14.00">about</text>
</g>
<!-- code -->
<g id="node3" class="node">
<title>code</title>
<ellipse fill="none" stroke="blue" cx="166.23" cy="-18" rx="30" ry="18"/>
<text text-anchor="middle" x="166.23" y="-13.8" font-family="Times,serif" font-size="14.00">string</text>
</g>
<!-- entityReference&#45;&gt;code -->
<g id="edge2" class="edge">
<title>entityReference&#45;&gt;code</title>
<path fill="none" stroke="blue" d="M166.23,-85.6C166.23,-74.26 166.23,-59.23 166.23,-46.32"/>
<polygon fill="blue" stroke="blue" points="169.73,-46.1 166.23,-36.1 162.73,-46.1 169.73,-46.1"/>
<text text-anchor="middle" x="179.44" y="-56.8" font-family="Times,serif" font-size="14.00">code</text>
</g>
<!-- href -->
<g id="node4" class="node">
<title>href</title>
<ellipse fill="none" stroke="blue" cx="273.23" cy="-18" rx="59.44" ry="18"/>
<text text-anchor="middle" x="273.23" y="-13.8" font-family="Times,serif" font-size="14.00">renderingURI</text>
</g>
<!-- entityReference&#45;&gt;href -->
<g id="edge3" class="edge">
<title>entityReference&#45;&gt;href</title>
<path fill="none" stroke="blue" d="M186.86,-86.8C203.29,-73.9 226.48,-55.7 244.69,-41.41"/>
<polygon fill="blue" stroke="blue" points="246.96,-44.07 252.66,-35.15 242.64,-38.57 246.96,-44.07"/>
<text text-anchor="middle" x="236.5" y="-56.8" font-family="Times,serif" font-size="14.00">href</text>
</g>
</g>
</svg>
